<svg width="110" height="110" viewBox="0 0 110 110" fill="none" xmlns="http://www.w3.org/2000/svg">
<path d="M102.625 84.454C104.669 82.9727 106 80.5674 106 77.8527V14.1447C106 9.64869 102.351 5.99939 97.8546 5.99939H12.1466C7.65056 5.99939 4.00122 9.64869 4.00122 14.1447V77.8527C4.00122 82.3487 7.65056 85.998 12.1466 85.998H61.1466" stroke="#485261" stroke-width="2" stroke-miterlimit="79.8403" stroke-linecap="round" stroke-linejoin="round"/>
<path fill-rule="evenodd" clip-rule="evenodd" d="M79.7747 67.998V53.998C79.7747 45.998 70.7747 45.998 70.7747 53.998V74.998C67.7961 69.6114 62.1534 69.3767 57.7747 70.998C55.7214 71.8874 55.1161 74.05 57.7747 74.998C63.6014 78.034 63.1441 80.7767 65.7747 88.998C67.2401 95.386 72.0001 101.998 79.7747 101.998H84.7747C90.0001 101.998 95.0147 98.0167 97.3654 92.106C99.0001 87.998 100.492 79.798 97.7747 74.998C94.0001 68.998 87.0001 67.998 79.7747 67.998Z" stroke="#485261" stroke-width="2" stroke-miterlimit="79.8403"/>
<path d="M50.7 74.998H39.304C38.5853 74.998 38.0027 74.4154 38.0027 73.6967V49.298C38.0027 48.5793 38.5853 47.9967 39.304 47.9967H50.7C51.4187 47.9967 52.0014 48.5793 52.0014 49.298V73.6967C52.0014 74.4154 51.4187 74.998 50.7 74.998Z" stroke="#485261" stroke-width="2" stroke-miterlimit="79.8403"/>
<path d="M29.4894 74.998H20.5147C19.1273 74.998 18.0027 73.8734 18.0027 72.486V63.51C18.0027 62.1227 19.1273 60.998 20.5147 60.998H29.4894C30.8767 60.998 32.0014 62.1227 32.0014 63.51V72.486C32.0014 73.8734 30.8767 74.998 29.4894 74.998Z" stroke="#485261" stroke-width="2" stroke-miterlimit="79.8403"/>
<path d="M71.9999 45.0564V36.5523C71.9999 34.591 70.4079 32.999 68.4466 32.999H61.5546C59.5932 32.999 58.0012 34.591 58.0012 36.5523V67.4297" stroke="#485261" stroke-width="2" stroke-miterlimit="79.8403" stroke-linecap="round" stroke-linejoin="round"/>
<path d="M91.9999 65.6821V21.5515C91.9999 19.5901 90.4079 17.9981 88.4466 17.9981H81.5546C79.5932 17.9981 78.0012 19.5901 78.0012 21.5515V44.4301" stroke="#485261" stroke-width="2" stroke-miterlimit="79.8403" stroke-linecap="round" stroke-linejoin="round"/>
</svg>
