<svg width="110" height="110" viewBox="0 0 110 110" fill="none" xmlns="http://www.w3.org/2000/svg">
<path d="M38.2319 42.9967H12.0425C7.60252 42.9967 3.99854 46.6007 3.99854 51.0407V96.954C3.99854 101.394 7.60252 104.998 12.0425 104.998H86.9559C91.3959 104.998 94.9999 101.394 94.9999 96.954V65.3487" stroke="#485261" stroke-width="2" stroke-miterlimit="79.8403" stroke-linecap="round" stroke-linejoin="round"/>
<path fill-rule="evenodd" clip-rule="evenodd" d="M42 21.814L60.8147 2.99804H88.184L107 21.814V49.182L88.184 67.998H60.8147L42 49.182V21.814Z" stroke="#485261" stroke-width="2" stroke-miterlimit="79.8403" stroke-linecap="round" stroke-linejoin="round"/>
<path d="M5 80.998H94" stroke="#485261" stroke-width="2" stroke-miterlimit="79.8403" stroke-linecap="round" stroke-linejoin="round"/>
<path d="M5 93.998H94" stroke="#485261" stroke-width="2" stroke-miterlimit="79.8403" stroke-linecap="round" stroke-linejoin="round"/>
<path fill-rule="evenodd" clip-rule="evenodd" d="M10.9985 56.998C10.9985 53.134 14.1359 49.998 17.9999 49.998C19.7119 49.998 21.2825 50.6154 22.4999 51.638C23.7159 50.6154 25.2865 49.998 26.9999 49.998C30.8639 49.998 34.0012 53.134 34.0012 56.998C34.0012 60.862 30.8639 63.998 26.9999 63.998C25.2865 63.998 23.7159 63.382 22.4999 62.3594C21.2825 63.382 19.7119 63.998 17.9999 63.998C14.1359 63.998 10.9985 60.862 10.9985 56.998Z" stroke="#485261" stroke-width="2" stroke-miterlimit="79.8403"/>
<path d="M69.9999 19.5395C69.9999 14.7902 62.9999 15.2488 62.9999 19.9982V36.6222C60.3666 32.6822 54.9239 30.7715 52.7092 32.6635C51.8052 33.6595 51.5519 35.3062 52.7092 36.6222C57.3172 40.1955 58.5972 42.8355 61.4159 48.2875C64.1946 54.7888 67.9293 59.6035 75.7519 59.5888C84.4586 59.5888 89.9999 54.0782 89.9999 42.2048V23.9982C89.9999 20.0395 83.9999 20.1635 83.9999 24.1222V33.4128V15.9982C83.9999 11.2488 76.9999 10.8328 76.9999 15.5822V32.9968V13.9982C76.9999 9.24884 69.9999 9.24884 69.9999 13.9982V33.7875" stroke="#485261" stroke-width="2" stroke-miterlimit="79.8403" stroke-linecap="round" stroke-linejoin="round"/>
</svg>
