<svg width="110" height="110" viewBox="0 0 110 110" fill="none" xmlns="http://www.w3.org/2000/svg">
<path d="M12 71.998C12.352 68.986 13.9533 67.4527 16.068 66.8007L24.28 64.49C26.1787 63.9674 27.5787 63.4354 27.7667 61.6034C27.8707 60.6087 27.5293 58.4087 26.0213 56.4074C23.9693 53.574 21.952 50.3527 21.952 45.4354C21.952 36.262 26.0213 30.998 32.9987 30.998C39.9747 30.998 44.0453 36.262 44.0453 45.4354C44.0453 50.3527 42.0293 53.574 39.9747 56.4074C38.468 58.4087 38.1267 60.6087 38.2307 61.6034C38.42 63.4354 39.8187 63.9674 41.72 64.49L44.22 65.1914" stroke="#485261" stroke-width="2" stroke-miterlimit="79.8403" stroke-linecap="round" stroke-linejoin="round"/>
<path d="M87.0001 51.0353V31.4699C87.0001 26.2419 82.7561 21.9979 77.5281 21.9979H13.4734C8.24545 21.9979 4.00146 26.2419 4.00146 31.4699V71.5246C4.00146 76.7526 8.24545 80.9966 13.4734 80.9966H40.8081" stroke="#485261" stroke-width="2" stroke-miterlimit="79.8403" stroke-linecap="round" stroke-linejoin="round"/>
<path d="M99.9146 61.8525C102.937 60.2872 105 57.1525 105 53.5459V13.3712C105 8.19788 100.756 3.99788 95.5266 3.99788H31.3293C27.7186 3.99788 24.5746 6.00322 22.9773 8.94722" stroke="#485261" stroke-width="2" stroke-miterlimit="79.8403" stroke-linecap="round" stroke-linejoin="round"/>
<path d="M96.0106 57.5366V22.3673C96.0106 17.1966 91.7666 12.998 86.5373 12.998H22.3399C18.7293 12.998 15.5853 15.002 13.9893 17.9446" stroke="#485261" stroke-width="2" stroke-miterlimit="79.8403" stroke-linecap="round" stroke-linejoin="round"/>
<path d="M73.0014 52.998C87.9123 52.998 100 65.0864 100 79.998C100 94.9097 87.9123 106.998 73.0014 106.998C58.0904 106.998 46.0027 94.9097 46.0027 79.998C46.0027 65.0864 58.0904 52.998 73.0014 52.998Z" stroke="#485261" stroke-width="2" stroke-miterlimit="79.8403"/>
<path d="M52 35.998H76" stroke="#485261" stroke-width="2" stroke-miterlimit="79.8403" stroke-linecap="round" stroke-linejoin="round"/>
<path d="M52 43.998H66" stroke="#485261" stroke-width="2" stroke-miterlimit="79.8403" stroke-linecap="round" stroke-linejoin="round"/>
<path d="M64 78.998L72 86.998L85 73.998" stroke="#485261" stroke-width="2" stroke-miterlimit="79.8403" stroke-linecap="round" stroke-linejoin="round"/>
</svg>
