<svg width="15" height="17" viewBox="0 0 15 17" fill="none" xmlns="http://www.w3.org/2000/svg">
<path d="M3.26398 16.3839C3.26398 16.2039 3.24398 16.1239 3.16398 16.1239L2.70398 16.3439C2.70398 16.2439 2.64398 16.1839 2.54398 16.1439L2.38398 16.1239C2.24398 16.1239 2.18398 16.1439 1.98398 16.2639C1.92398 16.1439 1.84398 16.0039 1.78398 15.8839C1.26398 14.8839 0.723984 13.3839 0.483984 12.7239C0.363984 12.3839 0.243984 11.6839 0.103984 10.6239C0.263984 10.7239 0.383984 10.7639 0.443984 10.7639C0.523984 10.7639 0.623985 10.6239 0.703984 10.3439C0.743984 10.4039 0.823984 10.4239 0.923985 10.4239C0.983985 10.4239 1.06398 10.4039 1.10398 10.3439L1.42398 9.86391L1.78398 9.98391H1.80398C1.84398 9.98391 1.90398 9.92391 2.00398 9.86391C2.10398 9.80391 2.18398 9.76391 2.24398 9.76391L2.30398 9.78391C2.62398 9.94391 2.84398 10.2239 2.94398 10.6639C3.18398 11.6839 3.40398 12.1839 3.66398 12.1839C3.88398 12.1839 4.18398 11.9239 4.50398 11.4239C4.82398 10.9239 5.14398 10.2439 5.50398 9.42391C5.52398 9.58391 5.54398 9.66391 5.58398 9.66391C5.70398 9.66391 6.00398 8.96391 6.74398 7.78391C7.84398 6.00391 10.564 2.58391 11.264 2.10391C11.784 1.74391 12.184 1.40391 12.464 1.10391C12.424 1.30391 12.384 1.44391 12.384 1.50391C12.384 1.56391 12.424 1.58391 12.464 1.58391L13.024 1.30391V1.38391C13.024 1.48391 13.044 1.54391 13.104 1.54391C13.184 1.54391 13.504 1.22391 13.544 1.10391L13.504 1.38391L14.184 0.983906L14.024 1.34391C14.224 1.20391 14.384 1.12391 14.484 1.12391C14.584 1.12391 14.644 1.28391 14.644 1.38391C14.644 1.54391 14.504 1.76391 14.284 2.04391C14.044 2.36391 13.444 2.98391 11.644 5.04391C10.864 5.92391 7.40398 10.6239 6.74398 11.7439L5.50398 13.8439C4.96398 14.7439 4.62398 15.3239 4.44398 15.5439C4.26398 15.7639 4.04398 15.9839 3.78398 16.1839L3.60398 16.0839L3.44398 16.1839L3.26398 16.3839Z" fill="#262C30"/>
</svg>
