<svg width="33" height="39" viewBox="0 0 33 39" fill="none" xmlns="http://www.w3.org/2000/svg">
<path fill-rule="evenodd" clip-rule="evenodd" d="M15.1942 37.789L1.28843 29.7597C1.14812 29.6795 1.01282 29.5755 0.886926 29.4547L32.7893 10.62C32.9014 10.905 32.966 11.1981 32.966 11.4718V18.8547L18.6067 27.3313C18.4651 27.211 18.3054 27.1077 18.1294 27.025C17.0677 26.5302 15.8037 26.9899 15.3089 28.0516C14.814 29.1133 15.2738 30.3773 16.3355 30.8721C17.3972 31.3669 18.6611 30.9072 19.156 29.8455C19.352 29.4252 19.3977 28.9723 19.3163 28.5489L32.966 20.4902V27.5292C32.966 28.3497 32.3885 29.35 31.6775 29.7603L17.7711 37.789C17.0602 38.1992 15.9052 38.1992 15.1942 37.789ZM0 27.5286V20.1839L14.856 11.413C15.0038 11.5426 15.1723 11.6535 15.3596 11.7406C16.4213 12.2354 17.6853 11.7756 18.1801 10.7139C18.6749 9.65226 18.2152 8.38827 17.1535 7.89345C16.0918 7.39862 14.8278 7.85839 14.333 8.92008C14.1413 9.33034 14.0931 9.77003 14.1664 10.1847L0 18.5478V11.4712C0 10.6507 0.577508 9.64978 1.28843 9.24014L15.1949 1.21081C15.9058 0.800545 17.0608 0.800545 17.7717 1.21081L31.6775 9.24014C31.7828 9.30152 31.8849 9.37479 31.9832 9.45935L0.132792 28.2639C0.0476069 28.0165 0 27.7654 0 27.5286Z" fill="#485261"/>
</svg>
