<svg width="251" height="250" viewBox="0 0 251 250" fill="none" xmlns="http://www.w3.org/2000/svg">
<path fill-rule="evenodd" clip-rule="evenodd" d="M39.4948 43.8651L39.4934 151.997H211.5L211.501 43.8651C211.501 37.8664 206.632 32.9971 200.633 32.9971H50.3628C44.3641 32.9971 39.4948 37.8664 39.4948 43.8651Z" fill="#596577"/>
<path fill-rule="evenodd" clip-rule="evenodd" d="M13.5 73.7518V176.927C13.5 183.223 17.9733 190.857 23.476 193.949L115.525 245.728C121.027 248.821 129.973 248.821 135.475 245.728L227.524 193.956C233.027 190.864 237.5 183.229 237.5 176.933V73.7585C237.5 67.4639 233.027 59.8292 227.524 56.7372L135.468 4.95717C129.965 1.86517 121.02 1.86517 115.517 4.95717L23.476 56.7305C17.9733 59.8225 13.5 67.4558 13.5 73.7518Z" fill="#596577"/>
<path fill-rule="evenodd" clip-rule="evenodd" d="M125.5 172.997C142.059 172.997 155.5 186.438 155.5 202.997C155.5 219.556 142.059 232.997 125.5 232.997C108.941 232.997 95.5 219.556 95.5 202.997C95.5 186.438 108.941 172.997 125.5 172.997Z" fill="white"/>
<path d="M135.715 214.96V218.767H115.5V214.697L127.839 202.445C130.113 200.112 131.252 197.924 131.252 195.883C131.252 194.308 130.727 193.024 129.676 192.032C128.627 191.04 127.313 190.544 125.739 190.544C124.192 190.544 122.901 191.04 121.867 192.032C120.831 193.024 120.181 194.323 119.919 195.927L115.763 195.227C116.141 192.835 117.249 190.865 119.088 189.32C120.925 187.773 123.157 187 125.783 187C128.524 187 130.843 187.773 132.739 189.32C134.635 190.865 135.583 193.024 135.583 195.795C135.583 197.604 135.16 199.215 134.315 200.631C133.468 202.045 132.229 203.555 130.595 205.159L120.532 214.96H135.715Z" fill="#485261"/>
<path d="M189.993 151.997H211.5L211.501 43.8651C211.501 37.8664 206.632 32.9971 200.633 32.9971H50.3628C44.3641 32.9971 39.4948 37.8664 39.4948 43.8651L39.4934 151.997H150.993" stroke="white" stroke-width="2" stroke-miterlimit="79.8403" stroke-linecap="round" stroke-linejoin="round"/>
<path d="M39.5 151.997L18.5 172.997" stroke="white" stroke-width="2" stroke-miterlimit="79.8403" stroke-linecap="round" stroke-linejoin="round"/>
<path d="M211.5 151.997L232.5 172.997" stroke="white" stroke-width="2" stroke-miterlimit="79.8403" stroke-linecap="round" stroke-linejoin="round"/>
<path d="M94.5 191.997H24.5" stroke="white" stroke-width="2" stroke-miterlimit="79.8403" stroke-linecap="round" stroke-linejoin="round"/>
<path d="M92.5 200.997H41.5" stroke="white" stroke-width="2" stroke-miterlimit="79.8403" stroke-linecap="round" stroke-linejoin="round"/>
<path d="M156.5 191.997H226.5" stroke="white" stroke-width="2" stroke-miterlimit="79.8403" stroke-linecap="round" stroke-linejoin="round"/>
<path d="M158.5 200.997H209.5" stroke="white" stroke-width="2" stroke-miterlimit="79.8403" stroke-linecap="round" stroke-linejoin="round"/>
<path fill-rule="evenodd" clip-rule="evenodd" d="M181.565 176.981L171.192 154.644L159.935 159.512C158.373 160.321 156.5 159.921 156.5 157.644V107.044C156.389 105.137 157.827 104.575 159.129 105.981L190.963 142.116C192.389 143.856 192.045 145.668 190.259 146.399L179.401 151.095L189.584 173.024C190.204 174.247 189.88 175.193 188.713 175.889L184.613 177.939C183.248 178.497 182.191 178.215 181.565 176.981Z" stroke="#9FDFD5" stroke-width="2" stroke-miterlimit="79.8403"/>
<path fill-rule="evenodd" clip-rule="evenodd" d="M174.979 56.3678C179.985 56.3678 184.049 60.4318 184.049 65.4371C184.049 70.4438 179.985 74.5078 174.979 74.5078C169.973 74.5078 165.909 70.4438 165.909 65.4371C165.909 60.4318 169.973 56.3678 174.979 56.3678Z" stroke="white" stroke-width="2" stroke-miterlimit="79.8403"/>
<path d="M180.519 72.5493L188.417 81.7373" stroke="white" stroke-width="2" stroke-miterlimit="79.8403" stroke-linecap="round" stroke-linejoin="round"/>
<path fill-rule="evenodd" clip-rule="evenodd" d="M55.8853 55.4906V82.0786C55.8853 84.7852 58.0839 86.9839 60.7906 86.9839H191.381C194.088 86.9839 196.287 84.7852 196.287 82.0786V55.4906C196.287 52.7839 194.088 50.5852 191.381 50.5852H60.7906C58.0839 50.5852 55.8853 52.7839 55.8853 55.4906Z" stroke="white" stroke-width="2" stroke-miterlimit="79.8403"/>
<path fill-rule="evenodd" clip-rule="evenodd" d="M55.5015 100.496V106.5C55.5015 108.983 57.5175 110.999 60.0001 110.999H111.001C113.484 110.999 115.5 108.983 115.5 106.5V100.496C115.5 98.0132 113.484 95.9972 111.001 95.9972H60.0001C57.5175 95.9972 55.5015 98.0132 55.5015 100.496Z" stroke="white" stroke-width="2" stroke-miterlimit="79.8403"/>
<path d="M55.5 119.997H148.5" stroke="white" stroke-width="2" stroke-miterlimit="79.8403" stroke-linecap="round" stroke-linejoin="round"/>
<path d="M55.5 127.997H148.5" stroke="white" stroke-width="2" stroke-miterlimit="79.8403" stroke-linecap="round" stroke-linejoin="round"/>
<path d="M55.5 135.997H97.5" stroke="white" stroke-width="2" stroke-miterlimit="79.8403" stroke-linecap="round" stroke-linejoin="round"/>
</svg>
