<svg width="251" height="250" viewBox="0 0 251 250" fill="none" xmlns="http://www.w3.org/2000/svg">
<path fill-rule="evenodd" clip-rule="evenodd" d="M13.4973 73.7518V176.927C13.4973 183.223 17.9706 190.857 23.4733 193.949L115.523 245.728C121.024 248.821 129.971 248.821 135.472 245.728L227.521 193.956C233.024 190.864 237.497 183.229 237.497 176.933V73.7585C237.497 67.4639 233.024 59.8292 227.521 56.7372L135.465 4.95717C129.963 1.86517 121.017 1.86517 115.515 4.95717L23.4733 56.7305C17.9706 59.8225 13.4973 67.4558 13.4973 73.7518Z" fill="#596577"/>
<path fill-rule="evenodd" clip-rule="evenodd" d="M46.4985 35.3623V180.63C46.4985 189.112 53.3825 195.996 61.8639 195.996H135.132C143.613 195.996 150.497 189.112 150.497 180.63V35.3623C150.497 26.881 143.613 19.9969 135.132 19.9969H61.8639C53.3825 19.9969 46.4985 26.881 46.4985 35.3623Z" fill="#596577"/>
<path d="M150.497 180.63V168.997" stroke="#9FDFD5" stroke-width="2" stroke-miterlimit="79.8403" stroke-linejoin="bevel"/>
<path d="M150.497 72.9969V35.3623C150.497 26.8809 143.613 19.9969 135.132 19.9969H61.8639C53.3825 19.9969 46.4985 26.8809 46.4985 35.3623V180.63C46.4985 189.112 53.3825 195.996 61.8639 195.996H92.8639" stroke="#9FDFD5" stroke-width="2" stroke-miterlimit="79.8403" stroke-linejoin="bevel"/>
<path fill-rule="evenodd" clip-rule="evenodd" d="M125.497 172.997C142.056 172.997 155.497 186.438 155.497 202.997C155.497 219.556 142.056 232.997 125.497 232.997C108.939 232.997 95.4973 219.556 95.4973 202.997C95.4973 186.438 108.939 172.997 125.497 172.997Z" fill="white"/>
<path d="M131.407 187.684V208.073H135.869V211.705H131.407V218.663H127.293V211.705H113.029V207.855L126.2 187.684H131.407ZM127.293 208.073V192.541H127.207L117.405 208.073H127.293Z" fill="#485261"/>
<path fill-rule="evenodd" clip-rule="evenodd" d="M98.4974 70.9971C112.849 70.9971 124.499 82.6451 124.499 96.9971C124.499 111.349 112.849 122.997 98.4974 122.997C84.1454 122.997 72.4961 111.349 72.4961 96.9971C72.4961 82.6451 84.1454 70.9971 98.4974 70.9971Z" stroke="white" stroke-width="2" stroke-miterlimit="79.8403"/>
<path d="M85.3975 95.5104L96.7921 106.101L113.196 89.4904" stroke="white" stroke-width="2" stroke-miterlimit="79.8403" stroke-linecap="round" stroke-linejoin="round"/>
<path d="M143.497 75.9969V35.3623C143.497 30.7476 139.747 26.9969 135.132 26.9969H117.497L113.497 33.9969C112.501 35.3383 111.15 35.9716 109.497 35.9969H87.4972C85.8438 35.9716 84.4932 35.3383 83.4972 33.9969L79.4972 26.9969H61.8639C57.2479 26.9969 53.4985 30.7476 53.4985 35.3623V180.63C53.4985 185.246 57.2479 188.996 61.8639 188.996H94.3905" stroke="#9FDFD5" stroke-width="2" stroke-miterlimit="79.8403" stroke-linejoin="round"/>
<path d="M91.4973 28.9971H106.497" stroke="white" stroke-width="2" stroke-miterlimit="79.8403" stroke-linecap="round" stroke-linejoin="bevel"/>
<path d="M234.409 85.0011L186.497 57.9971L131.497 88.9971V93.9971H138.497V98.9971H234.497V93.9971" stroke="white" stroke-width="2" stroke-miterlimit="79.8403" stroke-linecap="round" stroke-linejoin="bevel"/>
<path d="M153.497 108.997V147.997" stroke="white" stroke-width="2" stroke-miterlimit="79.8403" stroke-linecap="round" stroke-linejoin="bevel"/>
<path d="M143.497 108.997V147.997" stroke="white" stroke-width="2" stroke-miterlimit="79.8403" stroke-linecap="round" stroke-linejoin="bevel"/>
<path d="M141.497 103.997H155.497" stroke="white" stroke-width="2" stroke-miterlimit="79.8403" stroke-linecap="round" stroke-linejoin="bevel"/>
<path d="M179.497 108.997V147.997" stroke="white" stroke-width="2" stroke-miterlimit="79.8403" stroke-linecap="round" stroke-linejoin="bevel"/>
<path d="M169.497 108.997V147.997" stroke="white" stroke-width="2" stroke-miterlimit="79.8403" stroke-linecap="round" stroke-linejoin="bevel"/>
<path d="M167.497 103.997H181.497" stroke="white" stroke-width="2" stroke-miterlimit="79.8403" stroke-linecap="round" stroke-linejoin="bevel"/>
<path d="M186.497 164.997H131.497V159.997L138.497 157.997V151.997H186.497" stroke="white" stroke-width="2" stroke-miterlimit="79.8403" stroke-linecap="round" stroke-linejoin="round"/>
<path d="M219.497 108.997V147.997" stroke="white" stroke-width="2" stroke-miterlimit="79.8403" stroke-linecap="round" stroke-linejoin="bevel"/>
<path d="M229.497 108.997V147.997" stroke="white" stroke-width="2" stroke-miterlimit="79.8403" stroke-linecap="round" stroke-linejoin="bevel"/>
<path d="M231.497 103.997H217.497" stroke="white" stroke-width="2" stroke-miterlimit="79.8403" stroke-linecap="round" stroke-linejoin="bevel"/>
<path d="M193.497 108.997V147.997" stroke="white" stroke-width="2" stroke-miterlimit="79.8403" stroke-linecap="round" stroke-linejoin="bevel"/>
<path d="M203.497 108.997V147.997" stroke="white" stroke-width="2" stroke-miterlimit="79.8403" stroke-linecap="round" stroke-linejoin="bevel"/>
<path d="M205.497 103.997H191.497" stroke="white" stroke-width="2" stroke-miterlimit="79.8403" stroke-linecap="round" stroke-linejoin="bevel"/>
<path d="M186.497 164.997H234.497" stroke="white" stroke-width="2" stroke-miterlimit="79.8403" stroke-linecap="round" stroke-linejoin="round"/>
<path d="M234.497 157.997V151.997H186.497" stroke="white" stroke-width="2" stroke-miterlimit="79.8403" stroke-linecap="round" stroke-linejoin="round"/>
<path fill-rule="evenodd" clip-rule="evenodd" d="M186.497 88.9971C182.633 88.9971 179.497 85.8611 179.497 81.9971C179.497 78.1331 182.633 74.9971 186.497 74.9971C190.361 74.9971 193.497 78.1331 193.497 81.9971C193.497 85.8611 190.361 88.9971 186.497 88.9971Z" stroke="white" stroke-width="2" stroke-miterlimit="79.8403"/>
</svg>
