<svg width="251" height="250" viewBox="0 0 251 250" fill="none" xmlns="http://www.w3.org/2000/svg">
<path fill-rule="evenodd" clip-rule="evenodd" d="M13.4985 73.7518V176.927C13.4985 183.223 17.9719 190.857 23.4745 193.949L115.524 245.728C121.025 248.821 129.972 248.821 135.473 245.728L227.523 193.956C233.025 190.864 237.499 183.229 237.499 176.933V73.7585C237.499 67.4639 233.025 59.8292 227.523 56.7372L135.467 4.95717C129.964 1.86517 121.019 1.86517 115.516 4.95717L23.4745 56.7305C17.9719 59.8225 13.4985 67.4558 13.4985 73.7518Z" fill="#596577"/>
<path fill-rule="evenodd" clip-rule="evenodd" d="M125.499 172.997C142.057 172.997 155.499 186.438 155.499 202.997C155.499 219.556 142.057 232.997 125.499 232.997C108.94 232.997 95.4985 219.556 95.4985 202.997C95.4985 186.438 108.94 172.997 125.499 172.997Z" fill="white"/>
<path d="M122.193 204.327V200.827H123.549C125.563 200.827 127.217 200.425 128.516 199.624C129.813 198.821 130.463 197.501 130.463 195.664C130.463 194.147 129.931 192.915 128.865 191.967C127.801 191.019 126.511 190.544 124.993 190.544C122.368 190.544 120.56 191.813 119.568 194.351L115.717 192.995C116.476 191.128 117.693 189.663 119.371 188.597C121.048 187.533 122.98 187 125.168 187C127.881 187 130.149 187.744 131.972 189.232C133.795 190.72 134.707 192.776 134.707 195.401C134.707 197.123 134.196 198.624 133.176 199.908C132.155 201.192 130.841 202.037 129.237 202.445V202.533C131.104 202.912 132.621 203.78 133.788 205.137C134.955 206.493 135.539 208.148 135.539 210.103C135.539 213.049 134.517 215.361 132.476 217.039C130.433 218.716 127.997 219.553 125.168 219.553C122.66 219.553 120.487 218.985 118.649 217.848C116.811 216.709 115.469 215.004 114.624 212.728L118.561 211.416C119.028 212.787 119.837 213.888 120.989 214.719C122.141 215.551 123.505 215.967 125.081 215.967C126.772 215.967 128.231 215.448 129.456 214.413C130.681 213.377 131.293 211.927 131.293 210.059C131.293 208.076 130.528 206.624 128.997 205.705C127.465 204.787 125.635 204.327 123.505 204.327H122.193Z" fill="#485261"/>
<path d="M18.5825 166.505C32.2892 146.676 51.3292 130.81 73.6225 120.989" stroke="#9FDFD5" stroke-width="2" stroke-miterlimit="79.8403" stroke-linecap="round" stroke-linejoin="round"/>
<path d="M176.203 119.828C199.012 129.262 218.58 144.964 232.753 164.784" stroke="#9FDFD5" stroke-width="2" stroke-miterlimit="79.8403" stroke-linecap="round" stroke-linejoin="round"/>
<path d="M61.3533 209.536C64.4319 176.146 75.1773 147.464 90.1813 129.68" stroke="#9FDFD5" stroke-width="2" stroke-miterlimit="79.8403" stroke-linecap="round" stroke-linejoin="round"/>
<path d="M161.167 129.354C176.161 146.933 186.953 175.362 190.175 208.521" stroke="#9FDFD5" stroke-width="2" stroke-miterlimit="79.8403" stroke-linecap="round" stroke-linejoin="round"/>
<path d="M46.3052 146.944H205.839" stroke="#9FDFD5" stroke-width="2" stroke-miterlimit="79.8403" stroke-linecap="round" stroke-linejoin="round"/>
<path d="M154.133 181.944H231.464" stroke="#9FDFD5" stroke-width="2" stroke-miterlimit="79.8403" stroke-linecap="round" stroke-linejoin="round"/>
<path d="M77.272 72.3625V110.949C77.272 118.056 83.0413 123.825 90.1479 123.825H160.451C167.557 123.825 173.327 118.056 173.327 110.949V94.4159" stroke="white" stroke-width="2" stroke-miterlimit="79.8403" stroke-linecap="round" stroke-linejoin="round"/>
<path d="M173.327 87.1143V45.6489C173.327 42.9636 172.785 41.0702 171.023 38.8702L160.415 25.7742C158.445 23.7876 155.979 22.7729 153.451 22.7729H99.1479C96.7706 22.7729 94.2773 22.9356 91.96 25.3062L79.972 38.6702C78.212 40.5102 77.272 42.7756 77.272 45.6489V64.3622" stroke="white" stroke-width="2" stroke-miterlimit="79.8403" stroke-linecap="round" stroke-linejoin="round"/>
<path d="M20.6799 181.944H97.2373" stroke="#9FDFD5" stroke-width="2" stroke-miterlimit="79.8403" stroke-linecap="round" stroke-linejoin="round"/>
<path d="M125.265 131.515V168.267" stroke="#9FDFD5" stroke-width="2" stroke-miterlimit="79.8403" stroke-linecap="round" stroke-linejoin="round"/>
<path d="M125.499 23.9971V39.9971" stroke="white" stroke-width="2" stroke-miterlimit="79.8403" stroke-linecap="round" stroke-linejoin="round"/>
<path d="M162.499 39.9971H88.4985" stroke="white" stroke-width="2" stroke-miterlimit="79.8403" stroke-linecap="round" stroke-linejoin="round"/>
<path d="M173.778 65.0929H179.273C202.239 65.0929 202.239 94.1836 179.273 94.1836H139.75" stroke="#9FDFD5" stroke-width="2" stroke-miterlimit="79.8403" stroke-linecap="round" stroke-linejoin="round"/>
<path d="M152.467 81.4662L139.75 94.1836L152.467 106.901" stroke="#9FDFD5" stroke-width="2" stroke-miterlimit="79.8403" stroke-linecap="round" stroke-linejoin="round"/>
<path d="M76.4681 94.2129H70.972C48.0067 94.2129 48.0067 65.1222 70.972 65.1222H110.496" stroke="#9FDFD5" stroke-width="2" stroke-miterlimit="79.8403" stroke-linecap="round" stroke-linejoin="round"/>
<path d="M97.7788 77.8398L110.496 65.1225L97.7788 52.4052" stroke="#9FDFD5" stroke-width="2" stroke-miterlimit="79.8403" stroke-linecap="round" stroke-linejoin="round"/>
</svg>
