<svg width="251" height="250" viewBox="0 0 251 250" fill="none" xmlns="http://www.w3.org/2000/svg">
<path fill-rule="evenodd" clip-rule="evenodd" d="M170.502 76.8931V39.0224C170.502 33.4904 166.01 28.9984 160.478 28.9984H44.522C38.99 28.9984 34.498 33.4904 34.498 39.0224V189.973C34.498 195.505 38.99 199.997 44.522 199.997H90.4781L170.502 76.8931Z" fill="#596577"/>
<path fill-rule="evenodd" clip-rule="evenodd" d="M13.5005 73.7518V176.927C13.5005 183.223 17.9738 190.857 23.4765 193.949L115.526 245.728C121.027 248.821 129.974 248.821 135.475 245.728L227.525 193.956C233.027 190.864 237.5 183.229 237.5 176.933V73.7585C237.5 67.4639 233.027 59.8292 227.525 56.7372L135.468 4.95717C129.966 1.86517 121.021 1.86517 115.518 4.95717L23.4765 56.7305C17.9738 59.8225 13.5005 67.4558 13.5005 73.7518Z" fill="#596577"/>
<path d="M170.502 76.8931V39.0224C170.502 33.4904 166.01 28.9984 160.478 28.9984H44.522C38.99 28.9984 34.498 33.4904 34.498 39.0224V189.973C34.498 195.505 38.99 199.997 44.522 199.997H90.478" stroke="white" stroke-width="2" stroke-miterlimit="79.8403" stroke-linecap="round" stroke-linejoin="round"/>
<path fill-rule="evenodd" clip-rule="evenodd" d="M125.5 172.997C142.059 172.997 155.5 186.438 155.5 202.997C155.5 219.556 142.059 232.997 125.5 232.997C108.942 232.997 95.5005 219.556 95.5005 202.997C95.5005 186.438 108.942 172.997 125.5 172.997Z" fill="white"/>
<path d="M128.474 187.916V218.895H124.23V193.079L118.367 197.98L115.873 195.048L124.667 187.916H128.474Z" fill="#485261"/>
<path d="M143.498 168.148C144.319 161.2 148.057 157.661 152.994 156.16L172.151 150.832C176.585 149.627 179.851 148.397 180.289 144.168C180.537 141.875 179.738 136.8 176.222 132.179C171.431 125.645 166.726 118.216 166.726 106.875C166.726 85.7066 176.222 73.5666 192.502 73.5666C208.775 73.5666 218.271 85.7066 218.271 106.875C218.271 118.216 213.566 125.645 208.775 132.179C205.261 136.8 204.461 141.875 204.71 144.168C205.146 148.397 208.414 149.627 212.847 150.832L232.005 156.16" stroke="#9FDFD5" stroke-width="2" stroke-miterlimit="79.8403" stroke-linecap="round" stroke-linejoin="round"/>
<path fill-rule="evenodd" clip-rule="evenodd" d="M75.4993 53.4971V53.4984C75.4993 55.9811 77.5153 57.9971 79.9979 57.9971H125.002C127.485 57.9971 129.501 55.9811 129.501 53.4984V53.4971C129.501 51.0144 127.485 48.9984 125.002 48.9984H79.9979C77.5153 48.9984 75.4993 51.0144 75.4993 53.4971Z" stroke="#9FDFD5" stroke-width="2" stroke-miterlimit="79.8403"/>
<path fill-rule="evenodd" clip-rule="evenodd" d="M51.5032 76.4956V101.497C51.5032 103.98 53.5192 105.996 56.0018 105.996H150.003C152.486 105.996 154.502 103.98 154.502 101.497V76.4956C154.502 74.0129 152.486 71.9969 150.003 71.9969H56.0018C53.5192 71.9969 51.5032 74.0129 51.5032 76.4956Z" stroke="#9FDFD5" stroke-width="2" stroke-miterlimit="79.8403"/>
<path fill-rule="evenodd" clip-rule="evenodd" d="M51.502 118.496V124.5C51.502 126.983 53.518 128.999 56.0006 128.999H107.002C109.485 128.999 111.501 126.983 111.501 124.5V118.496C111.501 116.013 109.485 113.997 107.002 113.997H56.0006C53.518 113.997 51.502 116.013 51.502 118.496Z" stroke="#9FDFD5" stroke-width="2" stroke-miterlimit="79.8403"/>
<path d="M51.5005 137.997H154.501" stroke="#9FDFD5" stroke-width="2" stroke-miterlimit="79.8403" stroke-linecap="round" stroke-linejoin="round"/>
<path d="M51.5005 145.997H154.501" stroke="#9FDFD5" stroke-width="2" stroke-miterlimit="79.8403" stroke-linecap="round" stroke-linejoin="round"/>
<path d="M51.5005 153.997H93.5005" stroke="#9FDFD5" stroke-width="2" stroke-miterlimit="79.8403" stroke-linecap="round" stroke-linejoin="round"/>
<path d="M170.502 145.893V132.022" stroke="white" stroke-width="2" stroke-miterlimit="79.8403" stroke-linecap="round" stroke-linejoin="round"/>
</svg>
