<svg width="48" height="48" viewBox="0 0 48 48" fill="none" xmlns="http://www.w3.org/2000/svg">
<path fill-rule="evenodd" clip-rule="evenodd" d="M4 14.7433V33.25C4 34.3793 4.79866 35.7487 5.78133 36.3033L22.2187 45.5913C23.2013 46.146 24.7987 46.146 25.7813 45.5913L42.2187 36.3047C43.2013 35.75 44 34.3807 44 33.2513V14.7446C44 13.6153 43.2013 12.246 42.2187 11.6913L25.78 2.40333C24.7973 1.84867 23.2 1.84867 22.2173 2.40333L5.78133 11.69C4.79866 12.2447 4 13.614 4 14.7433Z" stroke="#485261" stroke-width="2" stroke-miterlimit="79.8403"/>
<path fill-rule="evenodd" clip-rule="evenodd" d="M33 18.9976H15V16.9976L24 11.9976L33 16.9976V18.9976Z" stroke="#485261" stroke-width="2" stroke-miterlimit="79.8403" stroke-linecap="round" stroke-linejoin="round"/>
<path d="M24 21.9976V26.9976" stroke="#485261" stroke-width="2" stroke-miterlimit="79.8403" stroke-linecap="round" stroke-linejoin="round"/>
<path d="M18 21.9976V26.9976" stroke="#485261" stroke-width="2" stroke-miterlimit="79.8403" stroke-linecap="round" stroke-linejoin="round"/>
<path d="M30 21.9976V26.9976" stroke="#485261" stroke-width="2" stroke-miterlimit="79.8403" stroke-linecap="round" stroke-linejoin="round"/>
<path d="M32 29.999H16" stroke="#485261" stroke-width="2" stroke-miterlimit="79.8403" stroke-linecap="round" stroke-linejoin="round"/>
<path d="M35 32.9976H13" stroke="#485261" stroke-width="2" stroke-miterlimit="79.8403" stroke-linecap="round" stroke-linejoin="round"/>
</svg>
