<svg width="48" height="48" viewBox="0 0 48 48" fill="none" xmlns="http://www.w3.org/2000/svg">
<path fill-rule="evenodd" clip-rule="evenodd" d="M4 14.7433V33.25C4 34.3793 4.79866 35.7487 5.78133 36.3033L22.2186 45.5913C23.2013 46.146 24.7987 46.146 25.7813 45.5913L42.2186 36.3047C43.2013 35.75 44 34.3807 44 33.2513V14.7446C44 13.6153 43.2013 12.246 42.2186 11.6913L25.78 2.40333C24.7973 1.84867 23.2 1.84867 22.2173 2.40333L5.78133 11.69C4.79866 12.2447 4 13.614 4 14.7433Z" stroke="#485261" stroke-width="2" stroke-miterlimit="79.8403"/>
<path fill-rule="evenodd" clip-rule="evenodd" d="M13.9985 18.5442V31.4522C13.9985 32.8562 15.1399 33.9976 16.5439 33.9976H31.4545C32.8585 33.9976 33.9999 32.8562 33.9999 31.4522V18.5442C33.9999 18.1149 33.8932 17.7109 33.7052 17.3562L31.2065 14.0056C30.7839 13.3616 30.2012 13.0202 29.4545 12.9989H18.5799C17.9812 13.0176 17.3652 13.3002 16.7145 14.1162L14.2532 17.4336C14.0905 17.7696 13.9985 18.1456 13.9985 18.5442Z" stroke="#485261" stroke-width="2" stroke-miterlimit="79.8403"/>
<path d="M24 12.9976V17.9976" stroke="#485261" stroke-width="2" stroke-miterlimit="79.8403" stroke-linecap="round" stroke-linejoin="round"/>
<path d="M18 17.9976H30" stroke="#485261" stroke-width="2" stroke-miterlimit="79.8403" stroke-linecap="round" stroke-linejoin="round"/>
</svg>
