<svg width="48" height="48" viewBox="0 0 48 48" fill="none" xmlns="http://www.w3.org/2000/svg">
<path fill-rule="evenodd" clip-rule="evenodd" d="M4 14.7457V33.2524C4 34.3817 4.79866 35.7511 5.78133 36.3058L22.2187 45.5938C23.2013 46.1484 24.7987 46.1484 25.7813 45.5938L42.2187 36.3071C43.2013 35.7524 44 34.3831 44 33.2538V14.7471C44 13.6178 43.2013 12.2484 42.2187 11.6937L25.78 2.40578C24.7973 1.85111 23.2 1.85111 22.2173 2.40578L5.78133 11.6924C4.79866 12.2471 4 13.6164 4 14.7457Z" stroke="#485261" stroke-width="2" stroke-miterlimit="79.8403"/>
<path d="M28 22L35 16H37C37 22 36.0187 29 28 29" stroke="#485261" stroke-width="2" stroke-miterlimit="79.8403" stroke-linecap="round" stroke-linejoin="round"/>
<path d="M36.6147 21H34" stroke="#485261" stroke-width="2" stroke-miterlimit="79.8403" stroke-linecap="round" stroke-linejoin="round"/>
<path d="M35 25H32" stroke="#485261" stroke-width="2" stroke-miterlimit="79.8403" stroke-linecap="round" stroke-linejoin="round"/>
<path d="M24 22H28V27C28 27.692 27.904 28.212 27.6467 28.6147C27.1587 29.376 26.092 29.716 24 30" stroke="#485261" stroke-width="2" stroke-miterlimit="79.8403" stroke-linecap="round" stroke-linejoin="round"/>
<path d="M24 33L28 36" stroke="#485261" stroke-width="2" stroke-miterlimit="79.8403" stroke-linecap="round" stroke-linejoin="round"/>
<path d="M27 31.0004C28.3613 31.9444 28.6933 33.2711 30 33.0004H32" stroke="#485261" stroke-width="2" stroke-miterlimit="79.8403" stroke-linecap="round" stroke-linejoin="round"/>
<path d="M25 22C25.3613 18.8507 25.3267 17.788 27 17H29" stroke="#485261" stroke-width="2" stroke-miterlimit="79.8403" stroke-linecap="round" stroke-linejoin="round"/>
<path d="M27 17V15" stroke="#485261" stroke-width="2" stroke-miterlimit="79.8403" stroke-linecap="round" stroke-linejoin="round"/>
<path d="M26 11L25 13H24" stroke="#485261" stroke-width="2" stroke-miterlimit="79.8403" stroke-linecap="round" stroke-linejoin="round"/>
<path d="M11.4307 21H14" stroke="#485261" stroke-width="2" stroke-miterlimit="79.8403" stroke-linecap="round" stroke-linejoin="round"/>
<path d="M13 25H16" stroke="#485261" stroke-width="2" stroke-miterlimit="79.8403" stroke-linecap="round" stroke-linejoin="round"/>
<path d="M24 22H20V27C20 27.692 20.096 28.212 20.3533 28.6147C20.8413 29.376 21.908 29.716 24 30" stroke="#485261" stroke-width="2" stroke-miterlimit="79.8403" stroke-linecap="round" stroke-linejoin="round"/>
<path d="M24 34V38" stroke="#485261" stroke-width="2" stroke-miterlimit="79.8403" stroke-linecap="round" stroke-linejoin="round"/>
<path d="M24 33L20 36" stroke="#485261" stroke-width="2" stroke-miterlimit="79.8403" stroke-linecap="round" stroke-linejoin="round"/>
<path d="M21 31.0004C19.6387 31.9444 19.3067 33.2711 18 33.0004H16" stroke="#485261" stroke-width="2" stroke-miterlimit="79.8403" stroke-linecap="round" stroke-linejoin="round"/>
<path d="M23 22C22.6387 18.8507 22.6733 17.788 21 17H19" stroke="#485261" stroke-width="2" stroke-miterlimit="79.8403" stroke-linecap="round" stroke-linejoin="round"/>
<path d="M21 17V15" stroke="#485261" stroke-width="2" stroke-miterlimit="79.8403" stroke-linecap="round" stroke-linejoin="round"/>
<path d="M22 11L23 13H24" stroke="#485261" stroke-width="2" stroke-miterlimit="79.8403" stroke-linecap="round" stroke-linejoin="round"/>
<path d="M20 22L13 16H11C11 22 11.9813 29 20 29" stroke="#485261" stroke-width="2" stroke-miterlimit="79.8403" stroke-linecap="round" stroke-linejoin="round"/>
</svg>
