<svg width="48" height="48" viewBox="0 0 48 48" fill="none" xmlns="http://www.w3.org/2000/svg">
<path fill-rule="evenodd" clip-rule="evenodd" d="M4 14.7433V33.25C4 34.3793 4.79866 35.7487 5.78133 36.3033L22.2186 45.5913C23.2013 46.146 24.7987 46.146 25.7813 45.5913L42.2186 36.3047C43.2013 35.75 44 34.3807 44 33.2513V14.7446C44 13.6153 43.2013 12.246 42.2186 11.6913L25.78 2.40333C24.7973 1.84867 23.2 1.84867 22.2173 2.40333L5.78133 11.69C4.79866 12.2447 4 13.614 4 14.7433Z" stroke="#485261" stroke-width="2" stroke-miterlimit="79.8403"/>
<path d="M12.4587 33.9951C12.6521 32.3591 13.5321 31.5258 14.6947 31.1724L19.2054 29.9178C20.2494 29.6338 21.0187 29.3444 21.1214 28.3484C21.18 27.8084 20.9921 26.6138 20.1641 25.5258C19.0361 23.9871 17.9281 22.2378 17.9281 19.5671C17.9281 14.5831 20.1641 11.7244 23.9974 11.7244C27.8294 11.7244 30.0654 14.5831 30.0654 19.5671C30.0654 22.2378 28.9574 23.9871 27.8294 25.5258C27.0014 26.6138 26.8134 27.8084 26.8721 28.3484C26.9747 29.3444 27.744 29.6338 28.788 29.9178L33.2987 31.1724C34.4614 31.5258 35.3414 32.3591 35.5347 33.9951" stroke="#485261" stroke-width="2" stroke-miterlimit="79.8403" stroke-linecap="round" stroke-linejoin="round"/>
</svg>
